<?xml version="1.0" encoding="UTF-8"?><svg id="Camada_2" xmlns="http://www.w3.org/2000/svg" viewBox="0 0 2500 1152.21"><defs><style>.cls-1{fill:#f9ebff;stroke-width:0px;}</style></defs><g id="Camada_1-2"><path class="cls-1" d="m1297.83,159.09c11.18-10.32,29.24-30.1,29.24-37.84,0-17.2-12.04-24.94-25.8-24.94-15.48,0-65.36,41.28-134.15,165.11-68.8,123.83-79.98,219.29-79.98,234.77,0,18.92,20.64,29.24,32.68,29.24,15.48,0,15.48-13.76,15.48-23.22,0-43,8.6-116.95,73.96-229.61,26.66-46.44,65.36-92.88,88.58-113.51Z"/><path class="cls-1" d="m1051.88,273.47c0-8.6-6.88-15.48-6.88-23.22,0-74.82,147.91-195.21,301.84-195.21,61.92,0,92.87,19.78,92.87,62.78,0,61.92-110.93,153.93-178.01,153.93-15.48,0-37.84,3.44-37.84,19.78,0,10.32,2.58,15.48,9.46,18.92,11.18,49.88,30.1,120.39,67.08,181.45,36.12,60.2,85.14,92.01,128.13,92.01,28.38,0,54.18-24.94,54.18-32.68,0-4.3-1.72-6.02-7.74-6.02-5.16,0-17.2,3.44-34.4,3.44-33.54,0-73.96-32.68-104.91-80.84-29.24-44.72-43.86-110.07-56.76-156.51,77.4-18.06,204.67-117.81,204.67-197.79,0-64.5-47.3-93.74-125.55-93.74-189.19,0-362.04,121.25-362.04,248.53,0,18.92,11.18,30.96,26.66,30.96s29.24-10.32,29.24-25.8Z"/><path class="cls-1" d="m1397.57,398.16c-8.6,2.58-16.34,12.9-16.34,21.5,0,9.46,4.3,12.04,4.3,17.2,0,37.84,24.08,60.2,52.46,60.2,73.62,0,131.89-43.99,173.24-87-1.94,16.92-2.98,33.65-2.98,50.03,0,30.1,9.46,35.26,20.64,35.26,10.32,0,29.24-17.2,29.24-31.82,0-12.9,18.06-44.72,34.4-62.78,42.14-46.44,79.12-79.98,95.45-79.98,7.74,0,15.48,5.16,15.48,13.76,0,40.42-48.16,113.51-79.98,113.51-7.74,0-15.48-8.6-23.22-8.6-13.76,0-23.22,11.18-23.22,21.5,0,15.48,7.74,30.1,39.56,30.1,65.36,0,131.57-98.03,131.57-170.27,0-24.94-14.62-41.28-36.98-41.28-49.02,0-104.05,49.02-152.21,106.63.86-12.04,10.32-45.58,17.2-57.62,133.29-104.05,205.53-223.59,205.53-291.52,0-18.92-14.62-36.98-35.26-36.98-49.02,0-92.02,43.86-142.75,136.73-34.11,63.1-64.83,137.48-81.74,211.46-2.88,3.34-5.75,6.9-8.55,10.41-30.96,37.84-88.58,104.05-160.81,104.05-16.34,0-24.08-16.34-24.08-23.22,0-6.02,3.44-12.04,14.62-14.62,56.76-12.9,128.99-63.64,128.99-108.35,0-18.92-19.78-32.68-37.84-32.68-44.72,0-104.05,37.84-136.73,114.37Zm344.83-251.97c37.84-73.96,77.4-106.63,89.44-106.63,7.74,0,11.18,4.3,11.18,10.32,0,27.52-62.78,153.07-155.65,221.87,7.74-21.5,26.66-70.52,55.04-125.55Zm-219.28,176.29c5.16,0,6.88,3.44,6.88,8.6,0,14.62-58.48,56.76-89.44,62.78,16.34-25.8,61.92-71.38,82.56-71.38Z"/><path class="cls-1" d="m1836.99,419.66c0,9.46,4.3,12.04,4.3,17.2,0,37.84,24.08,60.2,52.46,60.2,54.95,0,101.34-24.51,138.54-54.82,1.92,38.49,34.02,52.24,52.36,52.24,44.05,0,91.85-25.93,131.73-57.45-1.23,7.06-1.88,14.19-1.88,21.33,0,22.36,18.06,37.84,29.24,37.84,38.7,0,97.17-58.48,122.11-83.42-.86,12.04-1.72,20.64-1.72,30.1,0,24.08,13.76,43.86,42.14,43.86,19.78,0,46.44-11.18,69.66-32.68,13.76-12.9,24.08-23.22,24.08-32.68,0-8.6-6.02-12.9-13.76-12.9-9.46,0-18.06,10.32-30.1,21.5-12.9,11.18-24.94,17.2-33.54,17.2-10.32,0-13.76-9.46-13.76-18.06,0-12.04,6.88-30.96,15.48-48.16,10.32-22.36,41.28-59.34,41.28-73.96,0-12.04-9.46-21.5-25.8-21.5-12.9,0-22.36,17.2-24.94,17.2-8.6-10.32-21.5-18.92-35.26-18.92-31.02,0-69.8,19.39-101.97,49.22-8.32,3.46-17.53,14.82-26.15,25.6-30.1,39.56-99.75,98.89-155.65,98.89-10.32,0-17.2-10.32-17.2-21.5,0-46.44,67.94-110.93,98.03-110.93,2.58,0,4.3,1.72,4.3,2.58,0,4.3-4.3,7.74-8.6,10.32-5.16,3.44-10.32,9.46-10.32,17.2,0,12.04,7.74,17.2,15.48,17.2,18.06,0,45.58-24.08,45.58-50.74,0-19.78-21.5-37.84-42.14-37.84-46.55,0-99.16,46.44-127.66,93.65-32.89,37.56-83.65,85.22-144.93,85.22-16.34,0-24.08-16.34-24.08-23.22,0-6.02,3.44-12.04,14.62-14.62,56.76-12.9,128.99-63.64,128.99-108.35,0-18.92-19.78-32.68-37.84-32.68-44.72,0-104.05,37.84-136.73,114.37-8.6,2.58-16.34,12.9-16.34,21.5Zm531.43-95.45c11.18,0,18.92,7.74,18.92,17.2,0,16.34-105.77,108.35-118.67,108.35-4.3,0-7.74-2.58-7.74-6.88,0-39.56,73.1-118.67,107.49-118.67Zm-389.54-1.72c5.16,0,6.88,3.44,6.88,8.6,0,14.62-58.48,56.76-89.44,62.78,16.34-25.8,61.92-71.38,82.56-71.38Z"/><path class="cls-1" d="m1487.21,906.26s33.54-56.76,61.06-110.93c173.71-25.8,268.31-123.83,268.31-212.41,0-43-30.1-65.36-70.52-65.36-86.85,0-153.07,99.75-230.47,239.07-134.15,0-228.75-62.78-228.75-132.43,0-25.8-4.3-39.56-21.5-39.56-18.06,0-24.94,9.46-24.94,39.56,0,91.16,110.93,171.13,255.41,172.85-18.06,36.98-39.56,74.82-49.02,88.58-51.6-22.36-122.97-36.12-198.65-36.12-145.33,0-232.19,85.14-232.19,170.27s62.78,132.43,152.21,132.43c122.11,0,214.99-85.14,295.82-212.41,43,24.08,70.52,60.2,70.52,91.16,0,10.32-3.44,19.78-3.44,31.82,0,13.76,8.6,25.8,25.8,25.8,14.62,0,26.66-13.76,26.66-29.24,0-61.06-35.26-114.37-96.31-153.07Zm257.99-347.42c15.48,0,27.52,11.18,27.52,30.1,0,57.62-81.7,138.45-201.23,161.67,63.64-109.21,119.53-191.77,173.71-191.77Zm-576.17,552.09c-70.52,0-110.93-36.12-110.93-92.87s63.64-128.99,186.61-128.99c69.66,0,134.15,11.18,180.59,30.1-68.8,104.05-155.65,191.77-256.27,191.77Z"/><path class="cls-1" d="m1813.98,656.87c0,12.9,5.16,30.96,18.92,30.96,11.18,0,34.4-13.76,34.4-36.12,0-20.64-10.32-25.8-20.64-25.8-18.92,0-32.68,17.2-32.68,30.96Z"/><path class="cls-1" d="m2479.56,906.26c-9.46,0-18.06,10.32-30.1,21.5-12.9,11.18-24.94,17.2-33.54,17.2-10.32,0-13.76-9.46-13.76-18.06,0-12.04,6.88-30.96,15.48-48.16,10.32-22.36,41.28-59.34,41.28-73.96,0-12.04-9.46-21.5-25.8-21.5-12.9,0-22.36,17.2-24.94,17.2-8.6-10.32-21.5-18.92-35.26-18.92-31.03,0-69.8,19.39-101.98,49.22-8.31,3.46-17.53,14.82-26.15,25.59-29.24,39.56-78.26,97.17-104.91,97.17-6.88,0-9.46-6.02-9.46-15.48,0-38.7,24.08-77.4,24.08-114.37,0-20.64-18.92-30.96-33.54-30.96-25.8,0-68.8,30.1-97.17,63.64,2.58-12.04,5.16-25.8,5.16-39.56,0-24.94-28.38-33.54-44.72-33.54-20.64,0-62.78,30.96-87.72,60.2,7.74-20.64,24.08-58.48,24.08-70.52,0-16.34-10.32-20.64-22.36-20.64-9.46,0-19.78,12.04-26.66,33.54-7.88,24.52-15.23,46.35-21.94,65.73-1.29,1.59-2.58,3.2-3.85,4.79-29.24,39.56-91.16,98.03-114.37,98.03-7.74,0-12.04-7.74-12.04-13.76,0-17.2,24.08-76.54,49.02-116.95,5.16-7.74,11.18-13.76,11.18-25.8,0-11.18-9.46-18.06-21.5-18.06s-20.64,13.76-30.96,30.96c-6.88,12.9-50.74,97.17-50.74,135.01,0,30.1,19.78,45.58,37.84,45.58,28.5,0,71.17-30.15,108.65-64.71-9.5,26.46-14.92,42.68-14.92,50.95,0,13.76,11.18,23.22,19.78,23.22,12.9,0,12.9-12.9,24.08-35.26,9.46-19.78,21.5-48.16,37.84-71.38,28.38-41.28,73.96-68.8,83.42-68.8,6.88,0,12.04,1.72,12.04,10.32,0,12.9-13.76,53.32-24.08,86.86-6.88,19.78-14.62,36.98-14.62,43,0,16.34,12.9,24.94,23.22,24.94,11.18,0,18.92-13.76,27.52-34.4,12.9-31.82,81.7-120.39,106.63-120.39,3.44,0,6.02,3.44,6.02,6.88,0,19.78-18.92,65.36-18.92,99.75,0,30.96,14.62,49.02,40.42,49.02,22.97,0,51-20.07,76.92-44.76-.25,3.16-.39,6.33-.39,9.5,0,22.36,18.06,37.84,29.24,37.84,38.7,0,97.17-58.48,122.11-83.42-.86,12.04-1.72,20.64-1.72,30.1,0,24.08,13.76,43.86,42.14,43.86,19.78,0,46.44-11.18,69.66-32.68,13.76-12.9,24.08-23.22,24.08-32.68,0-8.6-6.02-12.9-13.76-12.9Zm-217.57,41.28c-4.3,0-7.74-2.58-7.74-6.88,0-39.56,73.1-118.67,107.49-118.67,11.18,0,18.92,7.74,18.92,17.2,0,16.34-105.77,108.35-118.67,108.35Z"/><path class="cls-1" d="m852.35,208.25c-35.43-47.22-79.77-87.68-129.93-118.78-50.14-31.14-106.17-52.77-164.22-63.39-58.04-10.68-117.98-10.59-175.93.61-57.92,11.3-113.58,33.64-163.21,65.3-49.66,31.62-93.29,72.51-128.04,119.89-34.84,47.32-60.56,101.26-75.52,157.98-7.48,28.35-12.34,57.39-14.39,86.59-1.97,29.21-1.31,58.55,2.02,87.6,6.67,58.1,24.59,114.75,52.03,166.11,27.44,51.37,64.45,97.47,108.52,135.18,44.17,37.6,95.26,66.81,149.81,85.64,27.26,9.46,55.4,16.24,83.88,20.32,14.26,1.9,28.56,3.4,42.91,3.99,7.16.56,14.34.45,21.51.51,2.82.04,5.61.03,8.4.02,1.09,62.92,2.15,125.83,4.85,188.75.18,4.27,3.72,7.65,7.99,7.65s7.81-3.38,7.99-7.65c2.89-67.31,3.9-134.63,5.13-201.94l.49-52.39.15-52.39-.64-104.77c-.34-30.48-.74-60.85-1.33-91.33-.05-2.48-.06-4.95-.14-7.43,57.31-.83,102.39-15.72,134.46-44.37v.26c88.1,0,123.6-79.51,137.57-133.64.85.04,1.69.13,2.55.13,27.41,0,49.63-22.22,49.63-49.63s-22.22-49.63-49.63-49.63-49.63,22.22-49.63,49.63c0,22.32,14.74,41.19,35.01,47.43-12.45,47.89-42.44,115.43-112.87,122.7,1.39-1.59,2.8-3.15,4.12-4.8,11.52-14.36,19.8-30.11,25.73-46.16,2.83-.16,5.6-.54,8.23-1.27,17.04-4.63,29.64-20.23,29.64-38.75,0-13.59-6.8-25.65-17.18-32.94-2.23-1.57-4.68-2.82-7.22-3.91.32-18.07-1.09-33.7-2.54-44.6,19.88-5.74,34.43-24.04,34.43-45.76,0-26.32-21.34-47.66-47.66-47.66s-47.66,21.34-47.66,47.66,21.34,47.66,47.66,47.66c.32,0,.63-.04.95-.05,1.24,9.8,2.45,23.64,2.31,39.67-1.09-.09-2.15-.25-3.26-.25-1.43,0-2.81.05-4.18.2-20.19,2.12-35.99,19.25-35.99,39.98,0,15.9,9.31,29.69,22.75,36.24.39.15.74.3,1.08.44,1.87.85,3.84,1.52,5.86,2.07-5.39,13.94-12.69,27.49-22.57,39.78-29.83,37.13-77.55,56.35-141.77,57.27v-.41l-.43-25.44c66.68-2.8,87.54-37.6,94.03-57.65,13.5-1.6,23.97-13.07,23.97-27,0-15.03-12.18-27.21-27.21-27.21s-27.21,12.18-27.21,27.21c0,11.83,7.56,21.86,18.1,25.61-1.76,4.86-4.54,10.59-9,16.37-14.23,18.45-39.34,28.85-72.88,30.34l-.35-20.63v-1.58s-.08.01-.12.02l-.07-7.54s.03,0,.05,0c2.56-.59,5.02-1.43,7.34-2.51.89-.39,1.72-.84,2.56-1.28,4.09-2.22,7.68-5.12,10.73-8.57,6.15-6.99,9.9-16.15,9.9-26.19,0-2.41-.2-4.78-.64-7.04-.33-1.88-.83-3.66-1.42-5.41,17.9-13.44,29-36.27,35.47-54.79.12,0,.23.02.35.02,23.81,0,43.11-19.3,43.11-43.11s-19.3-43.11-43.11-43.11-43.11,19.3-43.11,43.11c0,19.36,12.76,35.73,30.32,41.18-5.75,15.86-14.95,34.43-28.82,45.65-.35-.48-.64-1-1.01-1.46h-.05c-1.58-1.97-3.4-3.84-5.42-5.51-2.86-2.41-6.1-4.38-9.6-5.91-2.34-.98-4.83-1.8-7.37-2.35l-.21-22.66-.24-35.45-.25-38.16-.05-7.39c2.51-.34,4.97-.84,7.39-1.43,27.92-7.19,48.59-32.54,48.59-62.73,0-35.79-29-64.79-64.74-64.79s-64.79,29-64.79,64.79c0,30.18,20.63,55.54,48.59,62.73,2.41.59,4.87,1.08,7.39,1.43l-.05,7.39-.25,38.16-.1,14.87-.05,7.39c-2.56,0-5.02-.15-7.39-.44-24.37-2.76-37.57-16.69-44.7-30.38-.4-.77-.76-1.52-1.12-2.28,5.44-5.55,8.8-13.14,8.8-21.53,0-17-13.78-30.78-30.78-30.78s-30.78,13.78-30.78,30.78,13.78,30.78,30.78,30.78c3.33,0,6.52-.54,9.52-1.52,8.8,17.95,25.73,36.85,58.18,39.75,2.36.25,4.83.39,7.39.44l-.05,7.34-.17,14.35c-2.58.74-5.07,1.71-7.37,2.93-4.43,2.26-8.32,5.37-11.57,9.01-1.92,2.17-3.59,4.58-4.97,7.14-2.07,3.69-3.5,7.73-4.28,12.06-.39,2.27-.59,4.58-.59,6.94v.39c.15,14.87,8.47,27.72,20.68,34.37,2.28,1.26,4.7,2.28,7.22,3.06l-.28,23.92-.1,7.43c-2.51-.1-4.97-.25-7.38-.49-33.87-2.95-60.85-14.52-80.45-34.51-15.16-15.46-23.78-33.87-28.46-49.78-.1-.25-.15-.54-.25-.89-.15-.39-.25-.74-.34-1.13,0-.05,0-.1-.05-.15h.05c-.15-.55-.3-1.1-.44-1.62,16.83-4.85,29.15-20.33,29.15-38.72,0-22.27-18.05-40.32-40.32-40.32-20.97,0-38.18,16.01-40.13,36.46-12.62-3.66-22.81-9.61-30.26-17.98-7.2-8.1-10.9-17.35-12.8-25.45,16.54-2.35,29.27-16.54,29.27-33.73,0-18.84-15.27-34.11-34.11-34.11s-34.11,15.27-34.11,34.11c0,16.11,11.18,29.57,26.19,33.15,1.97,10.41,6.42,22.97,16.24,34.07,9.92,11.21,23.49,18.87,40.46,22.97,4.06,17.43,19.41,30.49,37.93,31.08,4.76,18.49,14.24,41.29,33.06,60.55,19.5,19.89,45.25,32.25,77,36.88h.1l2.51.1.34.35c1.58.2,3.15.39,4.73.54,1.48.2,2.95.34,4.48.44,2.41.25,4.87.39,7.34.49l-.1,7.39c-6.79-.3-13.39-.94-19.74-1.87-.05,0-.15,0-.2-.05-106.84-3.94-152.28-28.51-171.58-49.38-1.41-1.52-2.63-3.01-3.77-4.49,11.38-5.92,19.17-17.79,19.17-31.51,0-19.61-15.9-35.51-35.51-35.51s-35.51,15.9-35.51,35.51,15.9,35.51,35.51,35.51c1.31,0,2.61-.08,3.89-.22,1.85,2.73,3.99,5.54,6.57,8.39,21.86,24.22,74.44,52.93,200.98,54.5l-.1,7.39-.1,5.56c-.05,2.07-.1,4.19-.1,6.25-.1,2.51-.15,5.02-.15,7.48-125.99,13.79-218.06-3.99-273.79-52.68-19.99-17.49-32.1-36.62-39.45-53.25,20.04-7.17,34.4-26.27,34.4-48.77,0-28.63-23.21-51.85-51.85-51.85s-51.85,23.21-51.85,51.85,23.21,51.85,51.85,51.85c1.71,0,3.41-.09,5.08-.26,7.8,18.39,21.01,39.77,43.45,59.49,45.84,40.23,114.37,60.41,204.52,60.41,24.22,0,50.07-1.43,77.4-4.38-.05,2.51-.1,4.97-.1,7.43-.44,23.78-.69,47.51-.94,71.24l-.69,104.77.15,52.39.54,52.39c0,.08,0,.16,0,.25-51.58-1.64-102.42-10.87-150.22-29.16-51.8-19.69-99.67-49.13-140.5-86.11-40.99-36.8-75.1-81.1-99.88-130.03-24.8-48.91-40.44-102.35-45.51-156.77-2.54-27.2-2.56-54.63-.15-81.78,2.35-27.16,7.08-54.09,14.34-80.33,14.47-52.47,38.86-102.16,71.59-145.57,32.64-43.46,73.37-80.75,119.44-109.35,46.03-28.66,97.39-48.51,150.57-58.35,53.11-10.21,108.25-10.21,161.4-.35,53.18,9.81,104.44,29.68,150.35,58.27,45.92,28.55,86.52,65.7,118.92,109,32.33,43.33,56.81,92.51,71.49,144.57,14.62,52.04,19.66,106.94,14.19,160.89-5.38,53.89-20.33,106.94-44.9,155.37-24.65,48.34-57.92,92.48-98.28,129.12-37.25,33.13-79.84,60.33-125.82,80.05-7.22,3.1-10.7,11.35-7.99,18.72,2.89,7.85,11.7,11.79,19.47,8.67,22.38-8.98,44.41-18.98,65.09-31.51,6.26-3.77,12.7-7.28,18.79-11.34l18.01-12.56,8.99-6.31,8.52-6.93,17.03-13.89c44.11-38.6,80.9-85.52,108.53-137.42,54.21-104.51,67.7-229.49,36.3-343.37-15.43-56.95-41.79-110.99-77.35-158.12Z"/></g></svg>